<?xml version="1.0" encoding="UTF-8"?>
<svg id="_图层_1" data-name="图层 1" xmlns="http://www.w3.org/2000/svg" xmlns:xlink="http://www.w3.org/1999/xlink" viewBox="0 0 595.28 595.28">
  <defs>
    <style>
      .cls-1 {
        clip-path: url(#clippath);
      }

      .cls-2 {
        fill: none;
      }

      .cls-2, .cls-3, .cls-4, .cls-5 {
        stroke-width: 0px;
      }

      .cls-3 {
        fill: #a2a498;
      }

      .cls-6 {
        clip-path: url(#clippath-1);
      }

      .cls-7 {
        clip-path: url(#clippath-3);
      }

      .cls-8 {
        clip-path: url(#clippath-2);
      }

      .cls-4 {
        fill: #fefcf1;
      }

      .cls-5 {
        fill: #012634;
      }
    </style>
    <clipPath id="clippath">
      <rect class="cls-2" width="595.28" height="595.28"/>
    </clipPath>
    <clipPath id="clippath-1">
      <rect class="cls-2" width="595.28" height="595.28"/>
    </clipPath>
    <clipPath id="clippath-2">
      <rect class="cls-2" width="595.28" height="595.28"/>
    </clipPath>
    <clipPath id="clippath-3">
      <rect class="cls-2" width="595.28" height="595.28"/>
    </clipPath>
  </defs>
  <g id="_图稿_1" data-name="图稿 1">
    <g class="cls-1">
      <g class="cls-6">
        <g class="cls-8">
          <g class="cls-7">
            <path class="cls-4" d="M297.64,595.08c-96.64,0-193.29-.09-289.93.19-6.45.02-7.72-1.33-7.71-8.1C.22,394.15.22,201.12,0,8.09,0,1.33,1.26,0,7.71,0,201,.23,394.28.23,587.56,0c6.45,0,7.72,1.33,7.71,8.09-.22,193.03-.22,386.06,0,579.08,0,6.77-1.26,8.12-7.71,8.1-96.64-.28-193.28-.19-289.93-.19M303.84,366.12c-1.45-1.24-2.08-1.53-2.32-2.03-.99-2.06-1.96-4.13-2.75-6.28-16.71-45.96-43.31-85.1-75.48-120.34-21.69-23.77-43.9-47.01-65.49-70.87-23.59-26.08-41.12-56.22-53.28-89.88-2.25-6.25.44-15.66-5.98-18.43-5.93-2.55-13.61-.34-20.46-.89-6.64-.54-8.21,2.15-8.56,8.94-2.51,49.71,15.09,91.18,46.17,127.39,22.89,26.67,47.59,51.48,71.69,76.9,14.13,14.91,28.63,29.43,39.69,47.31,36.71,59.32,53.51,125.44,60.83,194.79,1.8,17.05,1.23,16.64,17.45,17.23,8.38.3,11.24-2.13,11.5-11.27.45-15.69,1.1-31.64,4.23-46.91,6.58-32.09,15.84-63.47,27.13-94.16,12.29-33.43,28.3-64.37,52.06-90.6,29.16-32.19,61.43-61.14,89.62-94.3,27.15-31.95,43.5-68.75,43.37-112.56-.07-23,.31-22.73-21.49-22.85-6.12-.03-9.08,1.9-10.41,8.12-5.93,27.84-19.2,52.03-35.03,74.71-27.96,40.04-63.91,72.27-96.47,107.82-3.37,3.68-4.67,2.29-6.82-1.2-7.81-12.69-16.81-24.51-26.94-35.17-6.09-6.41-4.7-10.4.63-16.2,22.63-24.63,44.78-49.75,67.29-74.51,14.52-15.97,24.96-34.49,32.5-54.97,2.33-6.34,2-9.62-5.99-8.92-15.02,1.31-29.03,5.7-41.45,14.47-31.48,22.23-57.62,50.62-82.18,80.62-4.33,5.29-6.09,5.41-10.09.4-17.95-22.51-37.95-42.94-59.02-62.19-18.19-16.63-38.02-30.07-62.46-34.18-6.65-1.12-10.27-.25-7.14,8.43,7.07,19.53,15.46,38.23,29.59,53.31,32.12,34.25,63.36,69.35,94.08,104.97,16.46,19.08,30.8,39.8,42.73,62.33,1.84,3.48,3.6,6.62,1.11,10.92-12.67,21.96-22.2,45.55-31.89,70.07M65.87,529.8c35.18,0,68.66-.27,102.14.21,7.52.11,10.57-2.12,13.07-9.78,16.09-49.44,32.09-98.98,56.72-144.73,1.86-3.45,1.2-5.82-.13-9.06-6.68-16.41-16.41-31.03-24.41-46.65-4.02-7.85-6.35-8.51-11.68-.93-38.76,55.06-76.02,111.2-111.23,168.82-8.22,13.45-15.87,27.26-24.49,42.12M539.28,529.8c-44.26-76.02-92.35-146.97-142.67-218.21-8.55,15.3-15.57,28.91-23.54,41.87-7.78,12.64-9.27,24.39.88,36.31,1.41,1.65,2.02,4.06,2.98,6.12,18.97,40.84,34.34,83.15,47.21,126.5.99,3.35.62,7.62,6.51,7.57,35.69-.31,71.39-.15,108.63-.15M365.89,529.75c5.33,0,10.66-.13,15.99.05,3.52.12,5.37-.74,4.4-4.98-4.36-19.17-5.65-39.05-11.41-57.88-4.84-15.85-13.69-20.77-29.57-18.62-5.19.7-6.84,2.33-6.31,7.8,1.7,17.65,2.84,35.35,4.53,53,1.97,20.64,2.13,20.62,22.37,20.63M237.66,529.68c6.64,0,11.65-.09,16.67.03,3.18.07,5.43-.39,5.53-4.62.57-23.35,4.63-46.35,6.62-69.56.39-4.54-.97-6.3-5.33-7.16-16.51-3.24-25.48,1.69-31.37,18.56-4.78,13.69-5.66,28.24-7.64,42.53-.89,6.46-4.42,15.46-1.71,18.8,3.69,4.54,12.36.79,17.24,1.41M132.7,57.73c-9.02-1.99-11.17,1.81-8.15,10.43,14.54,41.43,40.5,74.52,69.64,105.29,1,1.06,1.91,2.27,3.9,1.11,7.33-4.28,8.82-13.03,3-19.26-24.12-25.81-45.82-53.39-55.87-88.84-2.12-7.48-5.33-10.6-12.52-8.73M470.98,57.82c-6.83-1.76-9.57,1.68-11.51,8.65-5.5,19.74-15.35,37.52-26.77,53.91-10.12,14.52-22.15,27.65-33.91,40.83-6.67,7.47,1.64,9.28,3.7,13.25,2.39,4.59,4.8,2.78,7.83-.39,13.97-14.62,27.05-29.88,37.81-47.39,11.54-18.78,24.34-36.66,30.77-58.49,2.55-8.68.8-11.84-7.93-10.36M264.87,222.4c-4.74,5.86-7.93,9.41-10.67,13.31-2.47,3.51,1.07,5.31,2.7,7.32,16.91,20.84,31.92,43.05,44.79,66.88,1.22,2.26,1.64,9.37,6.27,4.89,4.1-3.96,13.84-6.59,9.03-15.36-13.94-25.42-30.59-48.89-49.06-70.92-1.21-1.44-1.77-3.48-3.07-6.13M236.9,219.51c4.1-1.44,5.96-5.11,8.63-7.77,2.73-2.72,1.37-5.35-.55-7.8-6.16-7.86-12.17-15.91-19.77-22.31-1.99-1.67-3.92-8.54-7.46-2.44-2.46,4.24-10.33,7.73-4.07,14.83,6.8,7.72,13.62,15.42,20.46,23.09.82.92,1.86,1.61,2.76,2.39M369.59,217.29c.75-.34,1.39-.48,1.86-.86,7.68-6.19,15.16-12.79,20.8-20.99,3.96-5.75-3.22-8.05-5.43-11.83-1.2-2.06-2.99-4.47-5.89-1.45-6.19,6.43-12.63,12.6-18.76,19.1-1.92,2.04-3.82,4.75-1.34,7.78,2.59,3.16,4.79,6.86,8.76,8.26"/>
            <path class="cls-3" d="M303.85,366.12c9.68-24.53,19.22-48.12,31.89-70.07,2.48-4.3.73-7.44-1.11-10.92-11.92-22.53-26.27-43.25-42.73-62.33-30.72-35.62-61.96-70.72-94.08-104.97-14.13-15.07-22.52-33.77-29.59-53.31-3.14-8.67.49-9.54,7.14-8.43,24.44,4.11,44.27,17.56,62.46,34.18,21.07,19.26,41.07,39.68,59.02,62.19,4,5.02,5.75,4.9,10.09-.4,24.56-30,50.7-58.39,82.18-80.62,12.42-8.77,26.43-13.15,41.45-14.47,7.98-.7,8.32,2.58,5.99,8.92-7.54,20.48-17.98,39-32.5,54.97-22.51,24.76-44.66,49.87-67.29,74.51-5.33,5.8-6.72,9.79-.63,16.2,10.13,10.66,19.12,22.48,26.94,35.17,2.15,3.49,3.45,4.89,6.82,1.2,32.56-35.55,68.51-67.78,96.47-107.82,15.83-22.68,29.11-46.86,35.03-74.71,1.32-6.22,4.28-8.15,10.41-8.12,21.8.12,21.42-.15,21.49,22.85.13,43.81-16.21,80.62-43.37,112.56-28.19,33.16-60.46,62.1-89.62,94.3-23.76,26.23-39.77,57.17-52.06,90.6-11.28,30.68-20.55,62.06-27.13,94.16-3.13,15.26-3.78,31.22-4.23,46.91-.26,9.14-3.12,11.58-11.5,11.28-16.22-.59-15.65-.18-17.45-17.23-7.32-69.35-24.13-135.47-60.83-194.79-11.06-17.87-25.56-32.4-39.69-47.31-24.1-25.43-48.8-50.23-71.69-76.9-31.08-36.21-48.68-77.68-46.17-127.39.34-6.79,1.92-9.48,8.56-8.94,6.86.56,14.54-1.66,20.46.89,6.42,2.77,3.72,12.18,5.98,18.43,12.16,33.66,29.69,63.81,53.28,89.88,21.59,23.86,43.8,47.11,65.49,70.87,32.16,35.24,58.77,74.39,75.48,120.34.78,2.15,1.76,4.22,2.75,6.28.24.5.87.78,2.32,2.03"/>
            <path class="cls-5" d="M65.87,529.8c8.62-14.86,16.27-28.68,24.49-42.12,35.21-57.63,72.47-113.77,111.23-168.82,5.33-7.57,7.65-6.92,11.68.94,8,15.62,17.73,30.24,24.41,46.65,1.32,3.25,1.98,5.61.13,9.06-24.64,45.75-40.64,95.29-56.72,144.73-2.49,7.66-5.55,9.89-13.07,9.78-33.47-.47-66.96-.2-102.14-.2"/>
            <path class="cls-5" d="M539.28,529.8c-37.24,0-72.94-.15-108.63.15-5.89.05-5.52-4.22-6.51-7.57-12.86-43.35-28.24-85.66-47.21-126.5-.96-2.07-1.58-4.47-2.98-6.12-10.15-11.91-8.65-23.67-.88-36.31,7.97-12.96,14.99-26.56,23.54-41.87,50.32,71.24,98.41,142.19,142.67,218.21"/>
            <path class="cls-5" d="M365.89,529.76c-20.24-.02-20.39,0-22.37-20.64-1.69-17.65-2.82-35.36-4.53-53-.53-5.48,1.12-7.1,6.31-7.8,15.88-2.14,24.72,2.77,29.57,18.62,5.76,18.84,7.04,38.71,11.41,57.88.96,4.23-.88,5.1-4.4,4.98-5.32-.18-10.66-.05-15.99-.04"/>
            <path class="cls-5" d="M237.66,529.68c-4.88-.63-13.55,3.13-17.24-1.41-2.71-3.34.82-12.34,1.71-18.8,1.98-14.29,2.86-28.84,7.64-42.53,5.89-16.87,14.87-21.8,31.37-18.56,4.36.86,5.72,2.61,5.33,7.16-1.99,23.21-6.04,46.21-6.62,69.56-.1,4.23-2.36,4.7-5.53,4.62-5.01-.12-10.03-.03-16.67-.03"/>
            <path class="cls-3" d="M132.7,57.73c7.19-1.87,10.39,1.25,12.52,8.73,10.05,35.45,31.75,63.02,55.87,88.84,5.82,6.23,4.32,14.98-3,19.26-1.99,1.16-2.9-.05-3.9-1.11-29.13-30.78-55.09-63.86-69.64-105.29-3.02-8.62-.87-12.42,8.15-10.43"/>
            <path class="cls-3" d="M470.98,57.82c8.73-1.48,10.48,1.68,7.93,10.36-6.42,21.83-19.23,39.71-30.77,58.49-10.76,17.51-23.84,32.77-37.81,47.39-3.03,3.17-5.44,4.98-7.83.39-2.07-3.97-10.37-5.77-3.7-13.25,11.76-13.18,23.79-26.3,33.91-40.83,11.42-16.39,21.27-34.17,26.77-53.91,1.94-6.97,4.67-10.4,11.51-8.65"/>
            <path class="cls-5" d="M264.87,222.4c1.3,2.65,1.86,4.69,3.07,6.13,18.48,22.03,35.12,45.51,49.06,70.92,4.81,8.76-4.93,11.39-9.03,15.36-4.63,4.47-5.05-2.63-6.27-4.89-12.86-23.84-27.88-46.04-44.79-66.88-1.63-2.01-5.18-3.81-2.7-7.32,2.74-3.9,5.93-7.45,10.67-13.31"/>
            <path class="cls-3" d="M236.9,219.51c-.91-.77-1.95-1.47-2.76-2.39-6.85-7.67-13.66-15.37-20.46-23.09-6.25-7.1,1.61-10.59,4.07-14.83,3.54-6.1,5.48.77,7.46,2.44,7.6,6.39,13.61,14.45,19.77,22.31,1.92,2.44,3.28,5.07.55,7.8-2.67,2.66-4.53,6.33-8.63,7.77"/>
            <path class="cls-3" d="M369.59,217.29c-3.96-1.41-6.17-5.1-8.76-8.26-2.48-3.03-.58-5.74,1.34-7.78,6.13-6.49,12.57-12.67,18.76-19.1,2.9-3.01,4.69-.6,5.89,1.45,2.21,3.78,9.39,6.08,5.43,11.83-5.64,8.2-13.13,14.8-20.8,20.99-.47.38-1.11.52-1.86.86"/>
          </g>
        </g>
      </g>
    </g>
  </g>
</svg>